{
    "asset" : {
        "generator" : "Khronos glTF Blender I/O v3.2.40",
        "version" : "2.0"
    },
    "scene" : 0,
    "scenes" : [
        {
            "name" : "Scene",
            "nodes" : [
                0,
                1
            ]
        }
    ],
    "nodes" : [
        {
            "mesh" : 0,
            "name" : "Cube.001",
            "scale" : [
                0.07504692673683167,
                1.915779948234558,
                0.16084404289722443
            ],
            "translation" : [
                0.07810354232788086,
                2.227057933807373,
                -0.1940312385559082
            ]
        },
        {
            "mesh" : 1,
            "name" : "Cube",
            "scale" : [
                0.2030162215232849,
                2.195855140686035,
                1.0696349143981934
            ],
            "translation" : [
                0,
                3.936307668685913,
                -0.23778919875621796
            ]
        }
    ],
    "materials" : [
        {
            "doubleSided" : true,
            "name" : "Material.007",
            "pbrMetallicRoughness" : {
                "baseColorFactor" : [
                    0.8000000715255737,
                    0.632610023021698,
                    0.4828554391860962,
                    1
                ],
                "metallicFactor" : 0,
                "roughnessFactor" : 0.5
            }
        },
        {
            "doubleSided" : true,
            "name" : "Material.005",
            "pbrMetallicRoughness" : {
                "baseColorFactor" : [
                    0.0012655447935685515,
                    0.9501765370368958,
                    0.0029014921747148037,
                    1
                ],
                "metallicFactor" : 0,
                "roughnessFactor" : 0.5
            }
        }
    ],
    "meshes" : [
        {
            "name" : "Cube.003",
            "primitives" : [
                {
                    "attributes" : {
                        "POSITION" : 0,
                        "NORMAL" : 1,
                        "TEXCOORD_0" : 2
                    },
                    "indices" : 3,
                    "material" : 0
                }
            ]
        },
        {
            "name" : "Cube.006",
            "primitives" : [
                {
                    "attributes" : {
                        "POSITION" : 4,
                        "NORMAL" : 5,
                        "TEXCOORD_0" : 6
                    },
                    "indices" : 7,
                    "material" : 1
                }
            ]
        }
    ],
    "accessors" : [
        {
            "bufferView" : 0,
            "componentType" : 5126,
            "count" : 1624,
            "max" : [
                1,
                1,
                1
            ],
            "min" : [
                -1,
                -1,
                -1
            ],
            "type" : "VEC3"
        },
        {
            "bufferView" : 1,
            "componentType" : 5126,
            "count" : 1624,
            "type" : "VEC3"
        },
        {
            "bufferView" : 2,
            "componentType" : 5126,
            "count" : 1624,
            "type" : "VEC2"
        },
        {
            "bufferView" : 3,
            "componentType" : 5123,
            "count" : 2436,
            "type" : "SCALAR"
        },
        {
            "bufferView" : 4,
            "componentType" : 5126,
            "count" : 3224,
            "max" : [
                1,
                1,
                1
            ],
            "min" : [
                -1,
                -1,
                -1
            ],
            "type" : "VEC3"
        },
        {
            "bufferView" : 5,
            "componentType" : 5126,
            "count" : 3224,
            "type" : "VEC3"
        },
        {
            "bufferView" : 6,
            "componentType" : 5126,
            "count" : 3224,
            "type" : "VEC2"
        },
        {
            "bufferView" : 7,
            "componentType" : 5123,
            "count" : 4836,
            "type" : "SCALAR"
        }
    ],
    "bufferViews" : [
        {
            "buffer" : 0,
            "byteLength" : 19488,
            "byteOffset" : 0
        },
        {
            "buffer" : 0,
            "byteLength" : 19488,
            "byteOffset" : 19488
        },
        {
            "buffer" : 0,
            "byteLength" : 12992,
            "byteOffset" : 38976
        },
        {
            "buffer" : 0,
            "byteLength" : 4872,
            "byteOffset" : 51968
        },
        {
            "buffer" : 0,
            "byteLength" : 38688,
            "byteOffset" : 56840
        },
        {
            "buffer" : 0,
            "byteLength" : 38688,
            "byteOffset" : 95528
        },
        {
            "buffer" : 0,
            "byteLength" : 25792,
            "byteOffset" : 134216
        },
        {
            "buffer" : 0,
            "byteLength" : 9672,
            "byteOffset" : 160008
        }
    ],
    "buffers" : [
        {
            "byteLength" : 169680,
            "uri" : "candy12.bin"
        }
    ]
}
