{"accessors" : [{"bufferView" : 0, "byteOffset" : 0, "componentType" : 5123, "count" : 36, "type" : "SCALAR", "max" : [29], "min" : [0]}, {"bufferView" : 1, "byteOffset" : 0, "componentType" : 5126, "count" : 30, "type" : "VEC3", "max" : [1, 1, 1], "min" : [-1, -1, -1], "name" : "POSITION"}, {"bufferView" : 1, "byteOffset" : 12, "componentType" : 5126, "count" : 30, "type" : "VEC2", "max" : [0.875, 1], "min" : [0.125, 0], "name" : "TEXCOORD_0"}, {"bufferView" : 0, "byteOffset" : 72, "componentType" : 5123, "count" : 372, "type" : "SCALAR", "max" : [311], "min" : [0]}, {"bufferView" : 2, "byteOffset" : 0, "componentType" : 5126, "count" : 312, "type" : "VEC3", "max" : [1, 1, 2.1661763191223145], "min" : [-1, -1, 0.16617628931999207], "name" : "POSITION"}, {"bufferView" : 2, "byteOffset" : 12, "componentType" : 5126, "count" : 312, "type" : "VEC2", "max" : [1, 0.9900000095367432], "min" : [0, 0], "name" : "TEXCOORD_0"}, {"bufferView" : 0, "byteOffset" : 816, "componentType" : 5123, "count" : 36, "type" : "SCALAR", "max" : [29], "min" : [0]}, {"bufferView" : 3, "byteOffset" : 0, "componentType" : 5126, "count" : 30, "type" : "VEC3", "max" : [9.186936378479004, 1.0526820421218872, 40.893707275390625], "min" : [-0.5165681838989258, 0.6926820874214172, 26.997209548950195], "name" : "POSITION"}, {"bufferView" : 3, "byteOffset" : 12, "componentType" : 5126, "count" : 30, "type" : "VEC2", "max" : [0.875, 1], "min" : [0.125, 0], "name" : "TEXCOORD_0"}, {"bufferView" : 0, "byteOffset" : 888, "componentType" : 5123, "count" : 2436, "type" : "SCALAR", "max" : [2028], "min" : [0]}, {"bufferView" : 4, "byteOffset" : 0, "componentType" : 5126, "count" : 2029, "type" : "VEC3", "max" : [1.4921473264694214, 2.7586684226989746, 40.15927505493164], "min" : [-0.6075831651687622, 0.7336686849594116, 26.965097427368164], "name" : "POSITION"}, {"bufferView" : 4, "byteOffset" : 12, "componentType" : 5126, "count" : 2029, "type" : "VEC2", "max" : [0.875, 1], "min" : [0.125, 0], "name" : "TEXCOORD_0"}, {"bufferView" : 0, "byteOffset" : 5760, "componentType" : 5123, "count" : 2436, "type" : "SCALAR", "max" : [2028], "min" : [0]}, {"bufferView" : 5, "byteOffset" : 0, "componentType" : 5126, "count" : 2029, "type" : "VEC3", "max" : [1.4921473264694214, 2.7463226318359375, 26.837852478027344], "min" : [-0.6075831651687622, 0.7213228940963745, 14.656280517578125], "name" : "POSITION"}, {"bufferView" : 5, "byteOffset" : 12, "componentType" : 5126, "count" : 2029, "type" : "VEC2", "max" : [0.875, 1], "min" : [0.125, 0], "name" : "TEXCOORD_0"}, {"bufferView" : 0, "byteOffset" : 10632, "componentType" : 5123, "count" : 2436, "type" : "SCALAR", "max" : [2028], "min" : [0]}, {"bufferView" : 6, "byteOffset" : 0, "componentType" : 5126, "count" : 2029, "type" : "VEC3", "max" : [1.5404504537582397, 2.7392945289611816, 14.521322250366211], "min" : [-0.5592800378799438, 0.7142947912216187, 0.8337497711181641], "name" : "POSITION"}, {"bufferView" : 6, "byteOffset" : 12, "componentType" : 5126, "count" : 2029, "type" : "VEC2", "max" : [0.875, 1], "min" : [0.125, 0], "name" : "TEXCOORD_0"}, {"bufferView" : 0, "byteOffset" : 15504, "componentType" : 5123, "count" : 36, "type" : "SCALAR", "max" : [29], "min" : [0]}, {"bufferView" : 7, "byteOffset" : 0, "componentType" : 5126, "count" : 30, "type" : "VEC3", "max" : [9.560966491699219, 0.738353431224823, 43.1375732421875], "min" : [-1.2207050323486328, 0.2825201153755188, -2.3325119018554688], "name" : "POSITION"}, {"bufferView" : 7, "byteOffset" : 12, "componentType" : 5126, "count" : 30, "type" : "VEC2", "max" : [0.875, 1], "min" : [0.125, 0], "name" : "TEXCOORD_0"}, {"bufferView" : 0, "byteOffset" : 15576, "componentType" : 5123, "count" : 36, "type" : "SCALAR", "max" : [29], "min" : [0]}, {"bufferView" : 8, "byteOffset" : 0, "componentType" : 5126, "count" : 30, "type" : "VEC3", "max" : [9.186936378479004, 1.0490909814834595, 26.758102416992188], "min" : [-0.5165681838989258, 0.6890910267829895, 14.614165306091309], "name" : "POSITION"}, {"bufferView" : 8, "byteOffset" : 12, "componentType" : 5126, "count" : 30, "type" : "VEC2", "max" : [0.875, 1], "min" : [0.125, 0], "name" : "TEXCOORD_0"}, {"bufferView" : 0, "byteOffset" : 15648, "componentType" : 5123, "count" : 36, "type" : "SCALAR", "max" : [29], "min" : [0]}, {"bufferView" : 9, "byteOffset" : 0, "componentType" : 5126, "count" : 30, "type" : "VEC3", "max" : [9.208370208740234, 1.0273659229278564, 14.410136222839355], "min" : [-0.1511998176574707, 0.6801259517669678, -0.05351543426513672], "name" : "POSITION"}, {"bufferView" : 9, "byteOffset" : 12, "componentType" : 5126, "count" : 30, "type" : "VEC2", "max" : [0.875, 1], "min" : [0.125, 0], "name" : "TEXCOORD_0"}, {"bufferView" : 0, "byteOffset" : 15720, "componentType" : 5123, "count" : 2436, "type" : "SCALAR", "max" : [2028], "min" : [0]}, {"bufferView" : 10, "byteOffset" : 0, "componentType" : 5126, "count" : 2029, "type" : "VEC3", "max" : [9.183284759521484, 1.955723524093628, 42.669578552246094], "min" : [-1.2068381309509277, 0.704481303691864, 38.60120391845703], "name" : "POSITION"}, {"bufferView" : 10, "byteOffset" : 12, "componentType" : 5126, "count" : 2029, "type" : "VEC2", "max" : [0.875, 1], "min" : [0.125, 0], "name" : "TEXCOORD_0"}, {"bufferView" : 0, "byteOffset" : 20592, "componentType" : 5123, "count" : 2436, "type" : "SCALAR", "max" : [2028], "min" : [0]}, {"bufferView" : 11, "byteOffset" : 0, "componentType" : 5126, "count" : 2029, "type" : "VEC3", "max" : [9.214167594909668, 1.9550530910491943, 2.5245141983032227], "min" : [-1.1759557723999023, 0.7038108706474304, -1.5438623428344727], "name" : "POSITION"}, {"bufferView" : 11, "byteOffset" : 12, "componentType" : 5126, "count" : 2029, "type" : "VEC2", "max" : [0.875, 1], "min" : [0.125, 0], "name" : "TEXCOORD_0"}, {"bufferView" : 0, "byteOffset" : 25464, "componentType" : 5123, "count" : 402, "type" : "SCALAR", "max" : [336], "min" : [0]}, {"bufferView" : 12, "byteOffset" : 0, "componentType" : 5126, "count" : 337, "type" : "VEC3", "max" : [8.516279220581055, 0.9999997019767761, 40.61560821533203], "min" : [6.516279220581055, -1.000000238418579, 38.61560821533203], "name" : "POSITION"}, {"bufferView" : 12, "byteOffset" : 12, "componentType" : 5126, "count" : 337, "type" : "VEC2", "max" : [1, 0.9900000095367432], "min" : [0, 0], "name" : "TEXCOORD_0"}, {"bufferView" : 0, "byteOffset" : 26268, "componentType" : 5123, "count" : 372, "type" : "SCALAR", "max" : [311], "min" : [0]}, {"bufferView" : 13, "byteOffset" : 0, "componentType" : 5126, "count" : 312, "type" : "VEC3", "max" : [0.8531126976013184, 0.9999997019767761, 40.9398193359375], "min" : [-1.1468873023986816, -1.000000238418579, 38.9398193359375], "name" : "POSITION"}, {"bufferView" : 13, "byteOffset" : 12, "componentType" : 5126, "count" : 312, "type" : "VEC2", "max" : [1, 0.9900000095367432], "min" : [0, 0], "name" : "TEXCOORD_0"}, {"bufferView" : 0, "byteOffset" : 27012, "componentType" : 5123, "count" : 372, "type" : "SCALAR", "max" : [311], "min" : [0]}, {"bufferView" : 14, "byteOffset" : 0, "componentType" : 5126, "count" : 312, "type" : "VEC3", "max" : [8.516279220581055, 0.9999997019767761, 2.438995361328125], "min" : [6.516279220581055, -1.000000238418579, 0.438995361328125], "name" : "POSITION"}, {"bufferView" : 14, "byteOffset" : 12, "componentType" : 5126, "count" : 312, "type" : "VEC2", "max" : [1, 0.9900000095367432], "min" : [0, 0], "name" : "TEXCOORD_0"}], "asset" : {"generator" : "Aspose.3D 22.6", "version" : "2.0"}, "buffers" : [{"uri" : "data:application/octet-stream;base64,", "byteLength" : 305376}], "bufferViews" : [{"buffer" : 0, "byteOffset" : 0, "byteLength" : 27756, "target" : 34963}, {"buffer" : 0, "byteOffset" : 27760, "byteLength" : 720, "byteStride" : 20, "target" : 34962}, {"buffer" : 0, "byteOffset" : 28484, "byteLength" : 7440, "byteStride" : 20, "target" : 34962}, {"buffer" : 0, "byteOffset" : 35928, "byteLength" : 720, "byteStride" : 20, "target" : 34962}, {"buffer" : 0, "byteOffset" : 36652, "byteLength" : 48720, "byteStride" : 20, "target" : 34962}, {"buffer" : 0, "byteOffset" : 85376, "byteLength" : 48720, "byteStride" : 20, "target" : 34962}, {"buffer" : 0, "byteOffset" : 134100, "byteLength" : 48720, "byteStride" : 20, "target" : 34962}, {"buffer" : 0, "byteOffset" : 182824, "byteLength" : 720, "byteStride" : 20, "target" : 34962}, {"buffer" : 0, "byteOffset" : 183548, "byteLength" : 720, "byteStride" : 20, "target" : 34962}, {"buffer" : 0, "byteOffset" : 184272, "byteLength" : 720, "byteStride" : 20, "target" : 34962}, {"buffer" : 0, "byteOffset" : 184996, "byteLength" : 48720, "byteStride" : 20, "target" : 34962}, {"buffer" : 0, "byteOffset" : 233720, "byteLength" : 48720, "byteStride" : 20, "target" : 34962}, {"buffer" : 0, "byteOffset" : 282444, "byteLength" : 8040, "byteStride" : 20, "target" : 34962}, {"buffer" : 0, "byteOffset" : 290488, "byteLength" : 7440, "byteStride" : 20, "target" : 34962}, {"buffer" : 0, "byteOffset" : 297932, "byteLength" : 7440, "byteStride" : 20, "target" : 34962}], "materials" : [{"name" : "Material.001", "pbrMetallicRoughness" : {"baseColorFactor" : [0.8000000715255737, 0.005146930459886789, 0, 1], "metallicFactor" : 0, "roughnessFactor" : 0.5}, "emissiveFactor" : [0, 0, 0], "alphaMode" : "OPAQUE", "doubleSided" : true}, {"name" : "Material.001", "pbrMetallicRoughness" : {"baseColorFactor" : [0.8000000715255737, 0.005146930459886789, 0, 1], "metallicFactor" : 0, "roughnessFactor" : 0.5}, "emissiveFactor" : [0, 0, 0], "alphaMode" : "OPAQUE", "doubleSided" : true}, {"name" : "Material.001", "pbrMetallicRoughness" : {"baseColorFactor" : [0.8000000715255737, 0.005146930459886789, 0, 1], "metallicFactor" : 0, "roughnessFactor" : 0.5}, "emissiveFactor" : [0, 0, 0], "alphaMode" : "OPAQUE", "doubleSided" : true}, {"name" : "Material.001", "pbrMetallicRoughness" : {"baseColorFactor" : [0.8000000715255737, 0.005146930459886789, 0, 1], "metallicFactor" : 0, "roughnessFactor" : 0.5}, "emissiveFactor" : [0, 0, 0], "alphaMode" : "OPAQUE", "doubleSided" : true}, {"name" : "Material.001", "pbrMetallicRoughness" : {"baseColorFactor" : [0.8000000715255737, 0.005146930459886789, 0, 1], "metallicFactor" : 0, "roughnessFactor" : 0.5}, "emissiveFactor" : [0, 0, 0], "alphaMode" : "OPAQUE", "doubleSided" : true}, {"name" : "Material.001", "pbrMetallicRoughness" : {"baseColorFactor" : [0.8000000715255737, 0.005146930459886789, 0, 1], "metallicFactor" : 0, "roughnessFactor" : 0.5}, "emissiveFactor" : [0, 0, 0], "alphaMode" : "OPAQUE", "doubleSided" : true}, {"name" : "Material.001", "pbrMetallicRoughness" : {"baseColorFactor" : [0.8000000715255737, 0.005146930459886789, 0, 1], "metallicFactor" : 0, "roughnessFactor" : 0.5}, "emissiveFactor" : [0, 0, 0], "alphaMode" : "OPAQUE", "doubleSided" : true}, {"name" : "Material.001", "pbrMetallicRoughness" : {"baseColorFactor" : [0.8000000715255737, 0.005146930459886789, 0, 1], "metallicFactor" : 0, "roughnessFactor" : 0.5}, "emissiveFactor" : [0, 0, 0], "alphaMode" : "OPAQUE", "doubleSided" : true}, {"name" : "Material.001", "pbrMetallicRoughness" : {"baseColorFactor" : [0.8000000715255737, 0.005146930459886789, 0, 1], "metallicFactor" : 0, "roughnessFactor" : 0.5}, "emissiveFactor" : [0, 0, 0], "alphaMode" : "OPAQUE", "doubleSided" : true}, {"name" : "Material.001", "pbrMetallicRoughness" : {"baseColorFactor" : [0.8000000715255737, 0.005146930459886789, 0, 1], "metallicFactor" : 0, "roughnessFactor" : 0.5}, "emissiveFactor" : [0, 0, 0], "alphaMode" : "OPAQUE", "doubleSided" : true}, {"name" : "Material.001", "pbrMetallicRoughness" : {"baseColorFactor" : [0.8000000715255737, 0.005146930459886789, 0, 1], "metallicFactor" : 0, "roughnessFactor" : 0.5}, "emissiveFactor" : [0, 0, 0], "alphaMode" : "OPAQUE", "doubleSided" : true}, {"name" : "Material.001", "pbrMetallicRoughness" : {"baseColorFactor" : [0.8000000715255737, 0.005146930459886789, 0, 1], "metallicFactor" : 0, "roughnessFactor" : 0.5}, "emissiveFactor" : [0, 0, 0], "alphaMode" : "OPAQUE", "doubleSided" : true}, {"name" : "Material.001", "pbrMetallicRoughness" : {"baseColorFactor" : [0.8000000715255737, 0.005146930459886789, 0, 1], "metallicFactor" : 0, "roughnessFactor" : 0.5}, "emissiveFactor" : [0, 0, 0], "alphaMode" : "OPAQUE", "doubleSided" : true}], "meshes" : [{"primitives" : [{"attributes" : {"POSITION" : 1, "TEXCOORD_0" : 2}, "indices" : 0, "mode" : 4}]}, {"primitives" : [{"attributes" : {"POSITION" : 4, "TEXCOORD_0" : 5}, "indices" : 3, "material" : 0, "mode" : 4}]}, {"primitives" : [{"attributes" : {"POSITION" : 7, "TEXCOORD_0" : 8}, "indices" : 6, "material" : 1, "mode" : 4}]}, {"primitives" : [{"attributes" : {"POSITION" : 10, "TEXCOORD_0" : 11}, "indices" : 9, "material" : 2, "mode" : 4}]}, {"primitives" : [{"attributes" : {"POSITION" : 13, "TEXCOORD_0" : 14}, "indices" : 12, "material" : 3, "mode" : 4}]}, {"primitives" : [{"attributes" : {"POSITION" : 16, "TEXCOORD_0" : 17}, "indices" : 15, "material" : 4, "mode" : 4}]}, {"primitives" : [{"attributes" : {"POSITION" : 19, "TEXCOORD_0" : 20}, "indices" : 18, "material" : 5, "mode" : 4}]}, {"primitives" : [{"attributes" : {"POSITION" : 22, "TEXCOORD_0" : 23}, "indices" : 21, "material" : 6, "mode" : 4}]}, {"primitives" : [{"attributes" : {"POSITION" : 25, "TEXCOORD_0" : 26}, "indices" : 24, "material" : 7, "mode" : 4}]}, {"primitives" : [{"attributes" : {"POSITION" : 28, "TEXCOORD_0" : 29}, "indices" : 27, "material" : 8, "mode" : 4}]}, {"primitives" : [{"attributes" : {"POSITION" : 31, "TEXCOORD_0" : 32}, "indices" : 30, "material" : 9, "mode" : 4}]}, {"primitives" : [{"attributes" : {"POSITION" : 34, "TEXCOORD_0" : 35}, "indices" : 33, "material" : 10, "mode" : 4}]}, {"primitives" : [{"attributes" : {"POSITION" : 37, "TEXCOORD_0" : 38}, "indices" : 36, "material" : 11, "mode" : 4}]}, {"primitives" : [{"attributes" : {"POSITION" : 40, "TEXCOORD_0" : 41}, "indices" : 39, "material" : 12, "mode" : 4}]}], "nodes" : [{"matrix" : [0.3894999921321869, 0, 0, 0, 0, 1.215000033378601, 0, 0, 0, 0, 1.909999966621399, 0, -0.6724669933319092, 6.156314849853516, 167.3651123046875, 1], "mesh" : 0, "name" : "Cube.002"}, {"matrix" : [0.3709999918937683, 0, 0, 0, 0, 1.2000000476837158, 0, 0, 0, 0, 0.29249998927116394, 0, -0.6310911774635315, 4.060912132263184, -19.28214454650879, 1], "mesh" : 1, "name" : "Cylinder.004"}, {"matrix" : [0.3709999918937683, 0, 0, 0, 0, 1.2000000476837158, 0, 0, 0, 0, 0.29249998927116394, 0, -0.7224078178405762, 4.060912132263184, -19.28214454650879, 1], "mesh" : 2, "name" : "Cylinder.001"}, {"matrix" : [0.3709999918937683, 0, 0, 0, 0, 1.2000000476837158, 0, 0, 0, 0, 0.29249998927116394, 0, -0.7224078178405762, 4.060912132263184, -19.28214454650879, 1], "mesh" : 3, "name" : "Cylinder.002"}, {"matrix" : [0.3709999918937683, 0, 0, 0, 0, 1.2000000476837158, 0, 0, 0, 0, 0.29249998927116394, 0, -0.8365536332130432, 4.060912132263184, -19.28214454650879, 1], "mesh" : 4, "name" : "Cylinder.003"}, {"matrix" : [0.3709999918937683, 0, 0, 0, 0, 1.2000000476837158, 0, 0, 0, 0, 0.29249998927116394, 0, -0.8365536332130432, 4.060912132263184, -19.28214454650879, 1], "mesh" : 5, "name" : "Cylinder.005"}, {"matrix" : [0.3709999918937683, 0, 0, 0, 0, 1.2000000476837158, 0, 0, 0, 0, 0.29249998927116394, 0, -0.7224078178405762, 4.060912132263184, -19.28214454650879, 1], "mesh" : 6, "name" : "Cylinder.006"}, {"matrix" : [0.3709999918937683, 0, 0, 0, 0, 1.2000000476837158, 0, 0, 0, 0, 0.29249998927116394, 0, -0.8365536332130432, 4.060912132263184, -19.28214454650879, 1], "mesh" : 7, "name" : "Cylinder.007"}, {"matrix" : [0.3709999918937683, 0, 0, 0, 0, 1.2000000476837158, 0, 0, 0, 0, 0.29249998927116394, 0, -0.8365536332130432, 4.060912132263184, -19.28214454650879, 1], "mesh" : 8, "name" : "Cylinder.008"}, {"matrix" : [0.3709999918937683, 0, 0, 0, 0, 1.2000000476837158, 0, 0, 0, 0, 0.29249998927116394, 0, -0.7224078178405762, 4.060912132263184, -19.28214454650879, 1], "mesh" : 9, "name" : "Cylinder.009"}, {"matrix" : [0.3709999918937683, 0, 0, 0, 0, 1.2000000476837158, 0, 0, 0, 0, 0.29249998927116394, 0, -0.7452369928359985, 4.060912132263184, -19.28214454650879, 1], "mesh" : 10, "name" : "Cylinder.010"}, {"matrix" : [0.3709999918937683, 0, 0, 0, 0, 1.2000000476837158, 0, 0, 0, 0, 0.29249998927116394, 0, -0.6995786428451538, 4.060912132263184, -19.167999267578125, 1], "mesh" : 11, "name" : "Cylinder.011"}, {"matrix" : [0.3709999918937683, 0, 0, 0, 0, 1.2000000476837158, 0, 0, 0, 0, 0.29249998927116394, 0, -0.4027995467185974, 4.060912132263184, -19.28214454650879, 1], "mesh" : 12, "name" : "Cylinder.012"}, {"matrix" : [0.3709999918937683, 0, 0, 0, 0, 1.2000000476837158, 0, 0, 0, 0, 0.29249998927116394, 0, -0.8137244582176208, 4.060912132263184, -19.37346076965332, 1], "mesh" : 13, "name" : "Cylinder.013"}], "scene" : 0, "scenes" : [{"nodes" : [0, 1, 2, 3, 4, 5, 6, 7, 8, 9, 10, 11, 12, 13]}]}